<svg width="18" height="18" viewBox="0 0 18 18" fill="none" xmlns="http://www.w3.org/2000/svg">
<path d="M8.99991 3.86914C7.1573 3.86914 5.6582 5.36824 5.6582 7.21085C5.6582 9.05346 7.1573 10.5526 8.99991 10.5526C10.8425 10.5526 12.3416 9.05346 12.3416 7.21085C12.3416 5.36824 10.8426 3.86914 8.99991 3.86914ZM8.99991 9.14553C7.93313 9.14553 7.06523 8.27763 7.06523 7.21085C7.06523 6.14407 7.93313 5.27616 8.99991 5.27616C10.0667 5.27616 10.9346 6.14407 10.9346 7.21085C10.9346 8.27763 10.0667 9.14553 8.99991 9.14553Z" fill="#111727"/>
<path d="M8.99989 0C5.02369 0 1.78882 3.2349 1.78882 7.21107V7.41041C1.78882 9.42135 2.94173 11.7647 5.21564 14.3753C6.86404 16.2679 8.48942 17.5875 8.55777 17.6427L8.99989 18L9.44202 17.6428C9.5104 17.5875 11.1358 16.2679 12.7841 14.3754C15.058 11.7647 16.211 9.42138 16.211 7.41045V7.21111C16.211 3.2349 12.9761 0 8.99989 0ZM14.8039 7.41045C14.8039 10.8088 10.4252 14.9226 8.99989 16.1715C7.5742 14.9222 3.19584 10.8086 3.19584 7.41045V7.21111C3.19584 4.01077 5.79955 1.40706 8.99989 1.40706C12.2002 1.40706 14.8039 4.01077 14.8039 7.21111V7.41045Z" fill="#111727"/>
</svg>
